<svg width="1600" height="1066" viewBox="0 0 1600 1066" fill="none" xmlns="http://www.w3.org/2000/svg">
  <rect width="1600" height="1066" fill="#04111C"/>
  <rect width="1600" height="1066" fill="url(#paint0_linear_84_2)"/>
  <path d="M0 0H1600V530C1458.09 580.203 1280.88 604.453 1068.37 602.75C809.018 600.636 629.85 500.72 437.636 489.828C287.872 481.339 142.277 517.935 0 563.617V0Z" fill="url(#paint1_radial_84_2)"/>
  <path d="M0 312C92.5771 292.978 168.697 279.199 228.359 270.662C311.886 258.744 364.372 254.727 472.13 265.638C582.404 276.805 689.322 296.057 748.327 294.393C850.697 291.431 890.607 248.104 1005.42 238.448C1114.74 229.243 1269.67 252.122 1600 307.085V510.981C1473.84 553.006 1316.78 574.102 1128.82 574.271C881.985 574.516 776.691 489.851 584.88 481.004C413.089 473.096 253.752 530.784 0 622V312Z" fill="url(#paint2_linear_84_2)" opacity="0.88"/>
  <path d="M0 542C121.595 518.556 247.225 507.71 376.891 509.462C565.1 512.019 667.417 612.807 871.173 613.928C1072.99 615.049 1265.93 535.236 1600 521V692C1438.61 728.926 1264.35 744.607 1077.23 739.044C837.903 732.05 639.98 660.518 457.035 662.086C286.336 663.485 133.991 699.667 0 770V542Z" fill="#0B2235"/>
  <path d="M0 770C130.663 715.928 251.969 687.114 363.918 683.557C552.764 677.534 664.855 770.333 878.62 772.208C1087.99 773.985 1284.12 720.038 1600 690V1066H0V770Z" fill="url(#paint3_linear_84_2)"/>
  <path d="M0 814C76.3034 790.021 166.923 777.011 271.859 774.97C469.559 771.073 640.182 823.724 858.257 821.814C1091.41 819.733 1300.68 744.265 1600 715V1066H0V814Z" fill="url(#paint4_linear_84_2)" opacity="0.9"/>
  <path d="M0 862C136.293 831.02 284.184 822.073 443.672 835.159C627.656 850.177 704.699 921.435 888.893 925.662C1049.77 929.321 1286.81 862.774 1600 808V1066H0V862Z" fill="url(#paint5_linear_84_2)" opacity="0.82"/>
  <ellipse cx="1189" cy="167.5" rx="268" ry="129.5" fill="#C7D7E2" fill-opacity="0.32"/>
  <g opacity="0.45" filter="url(#filter0_f_84_2)">
    <path d="M612 178C806.4 108 985 180.5 1050 224.5C1135.09 282.093 1235 300 1297.5 301.5C1133.5 369 1014 379.5 830.5 329.5C647 279.5 457.5 355.5 318.5 401.5C390.5 296.5 481.5 225 612 178Z" fill="#AFC4D2"/>
  </g>
  <g opacity="0.65" filter="url(#filter1_f_84_2)">
    <path d="M247 244C385.4 191.6 493.667 210.833 530.5 226.5C587.857 250.271 659.33 256.515 705 248C625.5 287 560.5 311 432 295.5C303.5 280 167 356.5 57 403C100.5 333 154 279 247 244Z" fill="#7E9FB3"/>
  </g>
  <g opacity="0.75" filter="url(#filter2_f_84_2)">
    <path d="M1126 315C1273.2 259.8 1438.67 283.833 1502.5 305C1560.35 322.98 1592.87 321.651 1600 319V460C1495.33 494.333 1281.3 551.3 1262.5 506.5C1239 450.5 942 384 847.5 424C881.5 369.5 975.5 371.5 1126 315Z" fill="#17324A"/>
  </g>
  <defs>
    <filter id="filter0_f_84_2" x="190.5" y="0.478516" width="1235" height="529.021" filterUnits="userSpaceOnUse" color-interpolation-filters="sRGB">
      <feFlood flood-opacity="0" result="BackgroundImageFix"/>
      <feBlend mode="normal" in="SourceGraphic" in2="BackgroundImageFix" result="shape"/>
      <feGaussianBlur stdDeviation="64" result="effect1_foregroundBlur_84_2"/>
    </filter>
    <filter id="filter1_f_84_2" x="-71" y="93" width="904" height="438" filterUnits="userSpaceOnUse" color-interpolation-filters="sRGB">
      <feFlood flood-opacity="0" result="BackgroundImageFix"/>
      <feBlend mode="normal" in="SourceGraphic" in2="BackgroundImageFix" result="shape"/>
      <feGaussianBlur stdDeviation="64" result="effect1_foregroundBlur_84_2"/>
    </filter>
    <filter id="filter2_f_84_2" x="719.5" y="165" width="1008.5" height="477.17" filterUnits="userSpaceOnUse" color-interpolation-filters="sRGB">
      <feFlood flood-opacity="0" result="BackgroundImageFix"/>
      <feBlend mode="normal" in="SourceGraphic" in2="BackgroundImageFix" result="shape"/>
      <feGaussianBlur stdDeviation="64" result="effect1_foregroundBlur_84_2"/>
    </filter>
    <linearGradient id="paint0_linear_84_2" x1="800" y1="0" x2="800" y2="1066" gradientUnits="userSpaceOnUse">
      <stop stop-color="#163349"/>
      <stop offset="0.41" stop-color="#0C2438"/>
      <stop offset="0.76" stop-color="#092032"/>
      <stop offset="1" stop-color="#06131F"/>
    </linearGradient>
    <radialGradient id="paint1_radial_84_2" cx="0" cy="0" r="1" gradientUnits="userSpaceOnUse" gradientTransform="translate(813 86.5) rotate(90) scale(516.5 1193.34)">
      <stop stop-color="#B8CBD7"/>
      <stop offset="0.45" stop-color="#8199AA"/>
      <stop offset="1" stop-color="#1A3346" stop-opacity="0"/>
    </radialGradient>
    <linearGradient id="paint2_linear_84_2" x1="800" y1="238" x2="800" y2="622" gradientUnits="userSpaceOnUse">
      <stop stop-color="#C1D2DD" stop-opacity="0.76"/>
      <stop offset="1" stop-color="#173147" stop-opacity="0.16"/>
    </linearGradient>
    <linearGradient id="paint3_linear_84_2" x1="800" y1="690" x2="800" y2="1066" gradientUnits="userSpaceOnUse">
      <stop stop-color="#25495C"/>
      <stop offset="1" stop-color="#081925"/>
    </linearGradient>
    <linearGradient id="paint4_linear_84_2" x1="800" y1="715" x2="800" y2="1066" gradientUnits="userSpaceOnUse">
      <stop stop-color="#60808D"/>
      <stop offset="0.51" stop-color="#355366"/>
      <stop offset="1" stop-color="#071822"/>
    </linearGradient>
    <linearGradient id="paint5_linear_84_2" x1="800" y1="822" x2="800" y2="1066" gradientUnits="userSpaceOnUse">
      <stop stop-color="#B6CACD" stop-opacity="0.9"/>
      <stop offset="0.27" stop-color="#6E8B90" stop-opacity="0.82"/>
      <stop offset="1" stop-color="#0B2235"/>
    </linearGradient>
  </defs>
</svg>
